<?xml version="1.0" encoding="utf-8"?>
<!-- Generator: Adobe Illustrator 22.0.1, SVG Export Plug-In . SVG Version: 6.00 Build 0)  -->
<svg version="1.1" id="Capa_1" xmlns="http://www.w3.org/2000/svg" xmlns:xlink="http://www.w3.org/1999/xlink" x="0px" y="0px"
	 viewBox="0 0 399.1 270" style="enable-background:new 0 0 399.1 270;" xml:space="preserve">
<g>
	<path id="Behance" d="M356.2,56.5h-98.8V32h98.8L356.2,56.5C356.2,56.5,356.2,56.5,356.2,56.5z M191.6,157.2
		c6.4,9.9,9.6,21.9,9.6,36c0,14.6-3.6,27.6-10.9,39.2c-4.7,7.6-10.4,14.1-17.4,19.3c-7.8,6-17.1,10.1-27.7,12.3
		c-10.7,2.2-22.2,3.3-34.7,3.3H0V21.8h118.5c29.9,0.5,51.1,9.1,63.6,26.1c7.5,10.4,11.2,22.9,11.2,37.5c0,15-3.8,27-11.3,36.1
		c-4.2,5.1-10.4,9.8-18.7,14C175.8,140.1,185.2,147.3,191.6,157.2z M56.6,118.5h51.9c10.7,0,19.3-2,25.9-6.1c6.6-4,10-11.2,10-21.6
		c0-11.4-4.4-19-13.2-22.6c-7.6-2.5-17.2-3.8-29-3.8H56.6V118.5z M149.4,189.6c0-12.7-5.2-21.6-15.6-26.3c-5.8-2.7-14-4.1-24.5-4.2
		H56.6v65.4h51.9c10.7,0,18.9-1.4,24.9-4.3C144.1,214.9,149.4,204.7,149.4,189.6z M392.9,149.7c1.2,8,1.7,19.7,1.5,34.9h-128
		c0.7,17.7,6.8,30,18.4,37.1c7,4.4,15.4,6.6,25.3,6.6c10.4,0,19-2.6,25.5-8.1c3.6-2.9,6.7-6.9,9.4-12.1H392
		c-1.2,10.4-6.9,21-17,31.8c-15.7,17.1-37.8,25.7-66.1,25.7c-23.4,0-44-7.2-61.9-21.6c-17.8-14.5-26.8-37.9-26.8-70.4
		c0-30.5,8-53.8,24.2-70.1c16.2-16.3,37.1-24.4,62.9-24.4c15.3,0,29.1,2.7,41.3,8.2c12.2,5.5,22.4,14.1,30.3,26
		C386.1,123.8,390.7,135.9,392.9,149.7z M346.7,154.3c-0.9-12.2-4.9-21.5-12.3-27.8c-7.3-6.3-16.4-9.5-27.2-9.5
		c-11.8,0-20.9,3.4-27.4,10.1c-6.5,6.7-10.6,15.7-12.3,27.2L346.7,154.3L346.7,154.3z"/>
</g>
</svg>
