<?xml version="1.0" encoding="utf-8"?>
<!-- Generator: Adobe Illustrator 22.0.1, SVG Export Plug-In . SVG Version: 6.00 Build 0)  -->
<svg version="1.1" id="Capa_1" xmlns="http://www.w3.org/2000/svg" xmlns:xlink="http://www.w3.org/1999/xlink" x="0px" y="0px"
	 viewBox="0 0 331.5 314.8" style="enable-background:new 0 0 331.5 314.8;" xml:space="preserve">
<g>
	<path id="LinkedIn" d="M328.3,194.4v121.2H258V202.5c0-28.4-10.2-47.8-35.6-47.8c-19.4,0-31,13.1-36,25.7
		c-1.9,4.5-2.3,10.8-2.3,17.1v118h-70.3c0,0,0.9-191.5,0-211.3h70.3v30c-0.1,0.2-0.3,0.5-0.5,0.7h0.5v-0.7
		c9.3-14.4,26-34.9,63.3-34.9C293.7,99.3,328.3,129.5,328.3,194.4z M40.3,2.4c-24,0-39.8,15.8-39.8,36.5c0,20.3,15.3,36.5,38.8,36.5
		h0.5c24.5,0,39.7-16.2,39.7-36.5C79.2,18.2,64.4,2.4,40.3,2.4z M4.7,315.6H75V104.3H4.7V315.6z"/>
</g>
</svg>
